<?xml version="1.0" encoding="UTF-8" standalone="no"?>
<svg
   enable-background="new 0 0 579.997 579.997"
   height="579.997"
   viewBox="0 0 579.997 579.997"
   width="579.997"
   version="1.1"
   id="svg71"
   sodipodi:docname="mountain_biking.svg"
   inkscape:version="1.1 (c68e22c387, 2021-05-23)"
   xmlns:inkscape="http://www.inkscape.org/namespaces/inkscape"
   xmlns:sodipodi="http://sodipodi.sourceforge.net/DTD/sodipodi-0.dtd"
   xmlns="http://www.w3.org/2000/svg"
   xmlns:svg="http://www.w3.org/2000/svg">
  <defs
     id="defs75" />
  <sodipodi:namedview
     id="namedview73"
     pagecolor="#ffffff"
     bordercolor="#666666"
     borderopacity="1.0"
     inkscape:pageshadow="2"
     inkscape:pageopacity="0.0"
     inkscape:pagecheckerboard="0"
     showgrid="false"
     inkscape:zoom="0.88638134"
     inkscape:cx="121.27963"
     inkscape:cy="290.50702"
     inkscape:window-width="1600"
     inkscape:window-height="837"
     inkscape:window-x="-8"
     inkscape:window-y="-8"
     inkscape:window-maximized="1"
     inkscape:current-layer="svg71" />
  <path
     style="fill:#000000;fill-opacity:1;stroke:#000000;stroke-width:1px;stroke-linecap:butt;stroke-linejoin:miter;stroke-opacity:1"
     d="m 531.542,253.88032 -0.38148,292.8661 -440.985709,-1.35762 37.565009,-88.10893 79.71353,4.60308 52.40703,-93.51098 97.35403,10.18833 49.99832,-90.23311 63.90879,13.95729 z"
     id="path1876"
     sodipodi:nodetypes="cccccccccc" />
  <path
     d="m 385.74917,121.57566 c -10.54386,6.0875 -19.38711,14.00255 -26.37195,23.11246 -2.54557,-2.44705 -5.12963,-4.93078 -7.72415,-7.42463 -10.80837,-10.38864 -21.79464,-20.92743 -30.86282,-29.48597 -8.93377,-8.431749 -15.37965,-13.078339 -18.91343,-17.061029 -2.75254,-3.10353 1.88063,-5.37665 4.31918,-12.00495 1.84148,-5.00648 1.96778,-11.73971 -0.0463,-17.35615 -1.81333,-4.914786 -5.3586,-8.85736 -9.56106,-11.336236 -13.59638,-6.865628 -20.5236,-2.587916 -29.84809,2.795584 -12.26032,7.078502 -32.49761,18.762502 -32.49761,18.762502 l 11.57358,19.86802 31.21428,-17.93728 c 3.72495,-2.14021 8.67359,1.97709 2.57694,8.20938 -2.67661,2.72198 -4.03508,8.56504 -2.5084,13.95132 1.52631,5.387659 5.12098,9.563819 9.36573,12.903939 0.97574,0.76802 3.52839,3.38535 7.15465,7.0202 L 152.48989,198.0268 132.31938,182.39245 c 8.19144,-7.608 26.84581,-25.30169 28.19599,-29.88711 1.6886,-5.29926 -4.6895,-8.12245 -7.44866,-6.52945 l -73.871091,42.6495 c 10.320287,15.76727 25.137941,11.93618 32.666951,9.01882 l 19.70861,15.27633 c -0.46115,1.22927 -0.69812,2.55081 -0.65835,3.90771 l 1.78194,60.0664 c -11.074,1.56925 -22.03214,5.23319 -32.29628,11.15919 -43.018081,24.8365 -57.809534,80.03896 -32.973034,123.05704 24.8365,43.01808 80.039814,57.80903 123.057024,32.97303 40.45725,-23.358 55.94405,-73.57408 36.98474,-115.25455 l 7.73708,-4.467 c 7.17796,6.49059 17.00716,9.60528 26.99692,8.77403 l 1.30457,11.0236 -13.91924,8.20717 c -2.98218,1.75871 -3.97459,5.6018 -2.21625,8.58534 1.74872,2.96486 5.55945,3.96325 8.53512,2.24525 0.0164,-0.009 0.0338,-0.0195 0.0511,-0.0295 l 31.24474,-18.42252 c 2.98218,-1.75871 3.9746,-5.6018 2.21625,-8.58534 -1.75821,-2.98132 -5.55919,-3.9888 -8.58534,-2.21625 l -8.87776,5.23527 -0.92643,-7.82862 c 2.58946,-0.84493 5.14062,-1.96219 7.60446,-3.38469 17.85312,-10.3075 24.56109,-32.23294 14.95309,-48.87449 -1.9815,-3.43206 -4.5125,-6.36788 -7.42559,-8.7875 l 53.50761,-110.48614 c 2.4549,2.36201 4.88427,4.70179 7.26268,6.99133 -9.59385,24.61697 -8.3605,53.21119 5.847,77.81931 24.8365,43.01808 80.03946,57.81039 123.05754,32.97389 C 518.85285,252.766 533.6438,197.56269 508.8073,154.54461 483.9702,111.53148 428.76725,96.739161 385.74917,121.57566 Z m -76.79832,8.83942 c 4.74284,4.50285 9.87793,9.40508 15.14726,14.45382 l -56.96395,117.62354 c -1.4139,-0.14093 -2.84209,-0.20664 -4.27859,-0.18672 l -1.33447,-11.27538 13.98022,-8.24353 c 2.98305,-1.75922 3.97547,-5.6023 2.21625,-8.58535 -1.74834,-2.96622 -5.55858,-3.96375 -8.53511,-2.24525 -0.0173,0.01 -0.0338,0.0195 -0.0511,0.0295 l -31.24424,18.42339 c -2.98218,1.75871 -3.97546,5.6023 -2.21625,8.58534 1.74922,2.96573 5.55945,3.96325 8.53512,2.24525 0.0164,-0.01 0.0338,-0.0195 0.0511,-0.0295 l 8.81591,-5.1984 0.884,7.46513 c -3.47209,0.87416 -6.89895,2.24067 -10.17426,4.13167 -0.29012,0.1675 -0.56877,0.34686 -0.85279,0.51892 L 169.98306,211.5858 Z m -157.14801,98.18766 75.19099,58.28063 c -2.48614,6.27588 -3.20749,13.08246 -1.91184,19.62058 l -8.17355,4.719 C 201.19892,290.72327 177.81457,278.52638 153.2195,276.35847 Z m 42.29969,95.78721 -38.79448,22.398 -1.30984,-44.18471 c 15.28391,2.07852 29.68867,9.61828 40.10432,21.78671 z m -16.61852,97.1799 c -30.60187,17.668 -69.87236,7.1455 -87.540364,-23.45638 -17.667999,-30.60187 -7.1455,-69.87237 23.456374,-87.54037 6.40426,-3.6975 13.18917,-6.14368 20.07456,-7.44583 l 1.82232,61.44835 c 0.107,3.61133 2.10498,6.89993 5.26072,8.65984 3.15575,1.75991 7.00384,1.73099 10.13279,-0.0755 l 54.09974,-31.2345 c 11.88798,29.16659 0.72018,63.4634 -27.30614,79.6444 z M 462.83367,255.08994 c -30.60188,17.668 -69.87237,7.1455 -87.54087,-23.45724 -8.096,-14.02268 -10.25642,-29.86262 -7.29462,-44.61265 2.72218,2.58296 5.13996,4.85669 7.14988,6.73197 2.84667,2.65658 4.38764,4.17561 6.40239,5.74326 l 0.83791,0.6513 0.95176,0.4805 c 0.69513,0.37 10.0228,8.318 24.38489,11.01186 l 0.11017,0.007 0.10019,0.0495 c 10.20459,1.73286 17.34202,0.34525 21.7918,-0.6315 4.66333,-1.06887 9.72292,-4.82141 9.99511,-10.40796 0.35793,-4.18806 -4.96458,-9.17491 -10.56196,-9.76186 -2.17842,-0.18913 -8.70194,-1.1582 -16.97151,-2.79351 -7.4251,-1.54666 -9.75611,-4.66608 -15.64471,-8.11944 0.16998,0.12241 -1.98339,-1.73933 -4.63078,-4.21074 -2.7185,-2.53659 -6.31606,-5.93975 -10.48216,-9.91763 -1.01085,-0.96484 -2.05559,-1.96439 -3.13072,-2.99257 5.20272,-7.45863 12.0666,-13.92604 20.44886,-18.76554 30.60187,-17.66801 69.87237,-7.1455 87.53987,23.45551 17.66887,30.60137 7.14637,69.87187 -23.4555,87.53987 z"
     fill="param(fill)"
     fill-opacity="param(fill-opacity)"
     stroke="param(outline)"
     stroke-opacity="param(outline-opacity)"
     stroke-width="param(outline-width)"
     id="path2" />
</svg>
