<?xml version="1.0" encoding="UTF-8" standalone="no"?>
<svg
   enable-background="new 0 0 579.997 579.997"
   height="579.997"
   viewBox="0 0 579.997 579.997"
   width="579.997"
   version="1.1"
   id="svg71"
   sodipodi:docname="runner.svg"
   inkscape:version="1.1 (c68e22c387, 2021-05-23)"
   xmlns:inkscape="http://www.inkscape.org/namespaces/inkscape"
   xmlns:sodipodi="http://sodipodi.sourceforge.net/DTD/sodipodi-0.dtd"
   xmlns="http://www.w3.org/2000/svg"
   xmlns:svg="http://www.w3.org/2000/svg">
  <defs
     id="defs75" />
  <sodipodi:namedview
     id="namedview73"
     pagecolor="#ffffff"
     bordercolor="#666666"
     borderopacity="1.0"
     inkscape:pageshadow="2"
     inkscape:pageopacity="0.0"
     inkscape:pagecheckerboard="0"
     showgrid="false"
     inkscape:zoom="0.88638134"
     inkscape:cx="121.27963"
     inkscape:cy="290.50702"
     inkscape:window-width="1600"
     inkscape:window-height="837"
     inkscape:window-x="-8"
     inkscape:window-y="-8"
     inkscape:window-maximized="1"
     inkscape:current-layer="svg71" />
  <path
     d="m 195.4446,153.69681 c 37.86,-11.531 51.489,-19.769 68.149,-24.71 16.657,3.293 30.289,11.531 30.289,11.531 0,0 -8.347,15.882 -70.875,64.575 11.796,12.931 21.699,31.3 36.304,31.514 22.479,0.324 23.112,-42.605 48.949,-43.988 18.545,-0.992 27.844,24.619 41.627,37.205 9.062,-9.833 8.958,-10.936 24.255,-26.707 6.563,3.845 5.554,10.986 12.115,14.832 0.067,0.229 0.131,0.434 0.197,0.651 5.621,-9.957 11.017,-21.035 21.392,-24.714 -1.975,-3.905 -4.12,-7.977 -6.441,-12.185 -16.655,-21.415 -7.571,-19.77 -25.744,-34.595 16.66,-3.845 33.32,2.195 48.462,-19.769 12.62,-31.849996 8.58,-42.284996 -10.603,-64.248996 -20.19,-15.376 -28.271,-14.277 -60.572,-1.647 -24.232,31.3 -13.635,32.948 -16.661,52.717996 0,0 -6.063,0 -18.179,-4.942 -12.112,-4.941 -16.654,-14.826996 -43.915,-14.826996 -27.26,0 -37.86,11.530996 -80.265,26.357996 -42.402,14.825 -51.489,36.242 -51.489,36.242 l 16.658,13.18 c 0,0 19.689,-4.939 36.347,-16.473 z"
     fill="param(fill) #000"
     fill-opacity="1"
     stroke="param(outline) #FFF"
     stroke-opacity="1"
     stroke-width="param(outline-width) 0"
     id="path67" />
  <path
     d="m24.821 395.411h530.354c0 0-22.014-71.586-48.723-70.197-28.096 1.458-30.599 43.988-52.263 43.988-23.088 0-26.943-43.988-54.96-43.988s-26.764 44.317-50.605 43.988c-23.786-.33-32.161-45.297-56.617-43.988-25.837 1.383-26.471 44.313-48.949 43.988-22.541-.33-33.883-43.918-58.271-43.988-24.355-.075-23.027 45.371-47.294 43.988-24.318-1.389-32.404-43.988-59.929-43.988-28.908-.001-52.743 75.08-52.743 70.197z"
     fill="none"
     stroke="param(outline) #FFF"
     stroke-width="param(outline-width) 0"
     id="path69" />
  <path
     style="fill:#000000;fill-opacity:1;stroke:#000000;stroke-width:1px;stroke-linecap:butt;stroke-linejoin:miter;stroke-opacity:1"
     d="m 223.0076,205.09281 c 0.65883,-0.49835 2.47484,-0.83621 1.97649,-1.49504 -0.49835,-0.65883 -1.23762,1.12561 -1.97649,1.49504 -1.62238,0.64226 -3.24475,1.28451 -4.86713,1.92677 0,0.28515 0.20163,0.65382 0,0.85545 -0.20163,0.20164 -0.76528,-0.27051 -0.85545,0 -0.27052,0.81156 0.27051,1.75481 0,2.56636 -0.18035,0.54104 -1.20082,-0.25504 -1.71091,0 -0.77091,0.38546 -3.38492,4.53782 -4.27726,5.13272 -1.45364,0.96909 -4.05506,0.63324 -5.13272,1.71091 -0.63762,0.63761 -0.21784,1.92874 -0.85545,2.56635 -0.40327,0.40327 -1.30765,-0.40326 -1.71091,0 -0.20163,0.20164 0.20163,0.65382 0,0.85546 -0.79906,0.79906 -3.4782,0.91184 -4.27726,1.7109 -1.37558,1.37557 -3.66874,5.5031 -5.13272,7.69908 -3.04267,4.564 -11.47219,8.90583 -15.39815,12.83179 -2.5413,2.54129 -4.403,6.57688 -7.69908,8.55453 -0.48903,0.29342 -1.20081,-0.25505 -1.7109,0 -0.25505,0.12752 0.20163,0.65382 0,0.85545 -1.21678,1.21677 -3.04471,2.18926 -4.27727,3.42181 -0.80115,0.80116 0.11673,2.508 -1.7109,3.42181 -1.20554,0.60277 -2.99889,1.07172 -4.27727,1.71091 -0.5165,0.25825 -2.17091,-0.39545 -2.56635,0 -0.20164,0.20163 0.20163,0.65382 0,0.85545 -1.56833,1.56833 -7.84166,-1.56833 -9.40999,0 -0.20163,0.20163 0.20164,0.65382 0,0.85545 -0.20992,0.20992 -17.0324,0 -17.9645,0 -11.11022,0 -18.0506,1.62482 -26.51904,-6.84362 -1.2055,-1.20549 -4.6584,-3.61238 -5.98817,-4.27726 -1.45176,-0.72588 -12.03737,0.79442 -12.8318,0 -0.45086,-0.45087 -0.40459,-1.26004 -0.85545,-1.71091 -0.55108,-0.55108 -2.61442,0.26913 -3.42181,0 -3.54088,-1.18029 -4.83683,-3.42181 -8.55453,-3.42181 -1.40917,0 -4.79876,0.5947 -5.98817,0 -0.67782,-0.33891 -0.028,-0.85545 -1.7109,-0.85545 -0.28516,0 -0.72793,-0.25505 -0.85546,0 -0.57896,1.15793 -1.10708,3.92506 -1.7109,5.13272 -1.29705,2.5941 -3.64218,4.35939 -5.13272,6.84362 -0.36065,0.60108 0.22444,1.89304 0,2.56636 -0.56986,1.70958 -1.9965,2.56768 -2.56636,4.27726 -0.27052,0.81155 0.20748,1.73645 0,2.56636 -0.0626,0.25036 -7.22011,9.54698 -7.69907,10.26543 -0.76107,1.14161 3.34791,1.67924 3.42181,1.71091 1.99605,0.85545 4.126,1.44905 5.98817,2.56636 0.69159,0.41495 0.96206,1.41136 1.7109,1.7109 0.79427,0.31771 1.73645,-0.20748 2.56636,0 1.17367,0.29342 1.62167,1.81061 2.56636,2.56636 3.42299,2.73839 9.30565,4.50677 13.68725,5.13272 4.53961,0.64851 12.22452,0.36788 16.2536,1.7109 0.76514,0.25505 0.94576,1.45586 1.7109,1.71091 1.28318,0.42773 2.99409,-0.42773 4.27727,0 0.38257,0.12752 0.5703,0.5703 0.85545,0.85545 0.85545,0.28515 1.69156,0.63675 2.56636,0.85545 3.686,0.9215 11.51801,-1.51234 14.5427,0 0.72138,0.36069 0.98952,1.35022 1.71091,1.71091 0.51009,0.25505 1.20081,-0.25505 1.7109,0 0.25505,0.12752 -0.20163,0.65382 0,0.85545 4.04388,4.04388 12.09155,1.09812 17.96451,2.56636 1.886,0.4715 3.24115,1.93584 5.13272,2.56636 0.80739,0.26913 2.87073,-0.55108 3.42181,0 0.20163,0.20163 -0.20163,0.65382 0,0.85545 0.44511,0.44512 2.6985,0 3.42181,0 5.18807,0 19.12304,1.32473 23.09723,0 0.98264,-0.32755 1.18687,-2.04233 1.7109,-2.56636 1.27245,-1.27244 3.2248,-1.8431 4.27727,-3.42181 0.71535,-1.07302 1.26249,-2.76988 2.56635,-3.42181 1.23423,-0.61711 6.08802,-2.76605 6.84363,-4.27726 0.12752,-0.25505 -0.20164,-0.65382 0,-0.85546 1.46117,-1.46117 3.49262,-1.1642 5.13271,-1.7109 1.86275,-0.62092 3.50957,-3.19517 5.13272,-4.27727 0.47452,-0.31634 1.30764,0.40327 1.71091,0 1.1406,-1.1406 -1.81469,-0.82085 0.85545,-1.7109 1.14455,-0.38152 3.22237,-0.65601 4.27726,-1.71091 0.56082,-0.56081 1.28233,-2.13777 1.71091,-2.56635 1.28415,-1.28415 7.51097,-3.64427 9.40998,-4.27727 2.34337,-0.78112 1.49365,-1.49365 2.56636,-2.56636 0.42772,-0.42772 2.13863,0.42773 2.56636,0 0.20163,-0.20163 -0.25505,-0.72793 0,-0.85545 1.29844,-0.64922 15.49444,-1.66276 17.10905,-0.85545 0.25505,0.12752 -0.17506,0.63037 0,0.85545 1.61936,4.24737 5.9064,6.09982 8.55453,9.40998 2.28328,2.8541 -1.27798,1.14407 3.42181,4.27726 0.60559,2.60833 2.37023,0.32967 3.42181,0.85546 1.95224,0.97612 2.35666,1.92615 4.27727,2.56636 0.85639,0.28546 3.87449,-0.60417 4.27726,0 0.50019,0.75028 0.31442,1.84497 0.85545,2.56635 1.46101,1.94802 2.14032,0.001 3.42182,0.85546 3.08974,2.05982 1.41054,1.11019 2.56635,3.42181 0.25505,0.51009 1.30765,-0.40327 1.71091,0 0.20163,0.20163 -0.20163,0.65382 0,0.85545 0.45086,0.45086 1.26004,0.40459 1.71091,0.85545 1.23947,1.23948 1.11644,4.53826 2.56635,5.98817 0.45087,0.45087 1.26005,0.40459 1.71091,0.85546 1.95873,1.95873 3.43445,6.88153 4.27726,9.40998 0.51328,1.53981 -0.51327,3.5929 0,5.13271 0.32513,0.97537 1.25112,1.64678 1.71091,2.56636 0.7097,1.4194 -0.78549,11.19085 0,11.97634 0.20163,0.20163 0.72793,-0.25504 0.85545,0 1.31521,2.63042 -0.64159,14.97044 0,18.81996 0.38799,2.32794 1.24756,4.5269 1.71091,6.84363 0.9914,4.95702 0,11.18592 0,16.2536 0,5.39855 1.28514,24.3745 0,28.22994 -0.21338,0.64012 -0.84733,4.26914 -0.85546,4.27727 -0.20163,0.20163 -0.65382,-0.20163 -0.85545,0 -0.60489,0.60489 0.38257,1.80122 0,2.56636 -0.45979,0.91958 -2.63049,2.10656 -1.7109,2.56635 1.66309,0.83155 24.38928,0 27.37449,0 0.0321,0 6.64358,0.40008 6.84362,0 0.64337,-1.28673 -0.7914,-3.94561 0,-5.13271 0.35369,-0.53053 1.26004,-0.40459 1.7109,-0.85546 0.70447,-0.70446 0.36298,-6.71412 0.85546,-7.69907 2.0198,-4.03961 -0.44989,5.22135 1.7109,-3.42181 0.13832,-0.55328 -0.40326,-1.30764 0,-1.71091 0.20164,-0.20163 0.65382,0.20163 0.85546,0 1.02954,-1.02954 -0.36048,-7.11261 0,-8.55453 0.0978,-0.39122 0.72793,-0.47288 0.85545,-0.85545 1.07198,-3.21595 0,-13.88047 0,-17.10905 0,-9.98029 0,-19.96057 0,-29.94085 0,-10.55059 0,-21.10117 0,-31.65176 0,-3.41914 1.07115,-8.76288 0,-11.97634 -0.25505,-0.76514 -1.35022,-0.98952 -1.71091,-1.7109 -2.36539,-4.73079 -7.1403,-10.56211 -11.12088,-14.5427 -0.42859,-0.42858 -2.861,-0.29464 -3.42181,-0.85545 -0.58105,-0.58105 -2.45135,-3.36431 -2.56636,-3.42181 -0.5101,-0.25505 -1.20082,0.25504 -1.71091,0 -0.25505,-0.12753 0.0902,-0.58494 0,-0.85546 -0.71118,-2.13353 -1.65478,-1.59865 -2.56636,-3.42181 -0.65562,-1.31124 -0.39056,-3.73804 -0.85545,-5.13272 -0.25505,-0.76514 -1.26352,-1.03983 -1.71091,-1.7109 -0.8153,-1.22296 -1.11695,-3.55256 -2.56635,-4.27727 -0.57664,-0.28831 -2.43261,-1.4434 -2.56636,-1.7109 -0.25505,-0.51009 0.25504,-1.20081 0,-1.71091 -0.28515,-0.5703 -1.42576,-0.28515 -1.71091,-0.85545 -2.52792,-5.05584 -0.85545,-14.80079 -0.85545,-20.53087 0,-3.14801 7.02205,-2.56636 9.40998,-2.56636 3.49635,0 31.75004,-0.8063 33.36266,0 1.32113,0.66057 3.10079,0.92659 4.27726,1.71091 0.67108,0.44738 0.98953,1.35022 1.71091,1.71091 0.60508,0.30253 6.48371,0.35991 6.84362,0 0.20163,-0.20164 -0.25504,-0.72793 0,-0.85546 0.5101,-0.25504 1.20081,0.25505 1.71091,0 0.25504,-0.12752 -0.20163,-0.65382 0,-0.85545 0.45086,-0.45086 1.35722,-0.32492 1.7109,-0.85545 0.79087,-1.1863 -0.27961,-2.8792 0,-4.27727 1.26168,-6.30836 3.14635,-12.48684 4.27727,-18.81996 0.76823,-4.30208 1.23766,-29.97119 -2.56636,-32.50721 -0.47452,-0.31634 -1.30764,0.40327 -1.71091,0 -4.93324,-4.93324 4.17354,-0.47959 -3.42181,-4.27726 -0.76514,-0.38257 -1.7548,0.27052 -2.56636,0 -1.07621,-0.35874 -2.15963,-1.29018 -3.42181,-1.71091 -2.30972,-0.7699 -5.38935,0.76991 -7.69907,0 -2.47999,-0.82666 -2.98966,-1.13765 -5.13272,-2.56635 -0.0792,-0.0528 -15.55722,-0.19897 -16.2536,0 -2.29756,0.65644 -8.68771,6.48248 -11.12089,7.69907 -1.37347,0.68674 -2.99958,0.85912 -4.27726,1.71091 -4.27727,2.85151 -2.13864,2.49507 -4.27727,4.27726 -6.91674,5.76396 -14.00492,12.18813 -21.38632,17.10906 -1.67768,1.11845 -2.63651,3.1053 -4.27726,4.27726 -6.65956,4.75683 -12.84506,0.61483 -19.67542,2.56636 -1.22617,0.35033 -2.17694,1.43427 -3.42181,1.71091 -2.4957,0.5546 -5.19047,-0.41811 -7.69907,0 -4.18367,0.69727 -5.55328,1.34358 -9.67557,-0.21587 z"
     id="path475" />
  <path
     style="fill:#000000;stroke:#000000;stroke-width:1px;stroke-linecap:butt;stroke-linejoin:miter;stroke-opacity:1;fill-opacity:1"
     d="m 386.2576,217.94881 c 3.4177,-1.07114 1.79119,-1.29239 4.68434,2.75802 1.70057,2.3808 3.83742,5.84155 6.84362,6.84362 0.54104,0.18034 1.30764,-0.40327 1.71091,0 0.45086,0.45086 0.40458,1.26004 0.85545,1.7109 1.02812,1.02813 2.97677,0.20521 4.27726,0.85546 2.01055,1.00527 5.02791,3.36941 6.84362,4.27726 0.5101,0.25505 1.20082,-0.25505 1.71091,0 3.37526,1.68763 6.4446,1.80219 10.26543,2.56636 1.67505,0.33501 2.89532,1.87539 4.27727,2.56636 1.05158,0.52579 2.59046,0.0241 3.42181,0.85545 0.45086,0.45086 0.34536,1.32834 0.85545,1.71091 2.50776,1.88082 5.05239,-0.0268 7.69908,0.85545 0.76514,0.25505 0.94576,1.45586 1.7109,1.71091 1.08207,0.36069 2.29267,-0.16131 3.42181,0 2.61301,0.37328 5.19393,2.06532 7.69908,2.56635 3.41019,0.68204 7.65174,0 11.12089,0 1.21134,0 14.6062,0.52797 15.39815,0 4.61494,-3.07662 -0.58919,-0.26626 2.56636,-3.42181 1.94955,-1.94955 7.41058,-7.35488 9.40998,-8.55453 0.77322,-0.46393 1.84497,-0.31441 2.56635,-0.85545 2.4919,-1.86892 3.01468,-6.02935 4.27727,-8.55453 0.28515,-0.5703 1.99606,-1.85348 2.56636,-2.56636 3.31144,-4.13929 6.61556,-9.02987 9.40998,-13.68724 4.36932,-7.2822 10.47975,-15.72052 12.83179,-23.95268 0.23501,-0.82254 -0.16777,-1.72752 0,-2.56636 0.51221,-2.56103 3.21921,-4.72751 4.27726,-6.84362 0.79824,-1.59647 1.36721,-7.43749 1.71091,-8.55453 -2.92157,-5.32756 3.18693,-4.97324 4.27726,-7.69907 0.47526,-1.18813 -0.31683,-3.00993 0,-4.27727 0.46394,-1.85574 1.71091,-3.42181 2.56636,-5.13271 0.44049,-0.88099 1.48295,-13.05976 0.85546,-13.68725 -3.57022,-3.57022 -7.3178,-4.30823 -11.12089,-6.84362 -1.0151,-0.67674 -9.74551,-0.68769 -11.12089,0 -2.65021,1.32511 -3.09207,5.65843 -5.13271,7.69907 -1.38121,1.38121 -2.76251,0.3923 -4.27727,3.42181 -0.71288,1.42576 0.47525,2.85151 0,4.27727 -0.40326,1.20979 -1.00353,2.36075 -1.7109,3.42181 -0.15818,0.23726 -0.65382,-0.20163 -0.85546,0 -1.73885,1.73886 -0.98482,6.73932 -1.7109,8.55453 -1.39261,1.39261 -1.95829,1.59759 -2.56636,3.42181 -0.42773,1.28318 0.42773,2.99408 0,4.27726 -2.09728,6.29183 -12.90286,14.22158 -17.10906,20.53087 -1.49962,2.24943 -0.96177,5.55964 -2.56636,7.69908 -3.81479,5.08639 -7.28635,10.70816 -11.97634,15.39815 -0.45086,0.45086 -1.26004,0.40459 -1.7109,0.85545 -1.66734,1.66734 3.8558,0.21073 -0.85545,2.56636 -0.76514,0.38257 -1.72752,-0.16777 -2.56636,0 -2.84838,0.56967 -0.73372,1.22231 -3.42181,2.56636 -1.61306,0.80653 -3.38311,1.2735 -5.13272,1.7109 -2.17517,0.5438 -21.71627,0.69048 -23.09723,0 -4.41478,-2.20739 -6.55142,-8.16493 -9.40998,-11.97634 -1.60286,-2.13714 -5.94756,-3.3 -6.84362,-5.98817 -0.18035,-0.54103 0.31635,-1.23638 0,-1.7109 -0.73148,-1.09723 -5.7015,-2.27969 -6.84362,-3.42181 -0.40327,-0.40327 0.40326,-1.30764 0,-1.71091 -0.99803,-0.99803 -4.99014,0.99803 -5.98817,0 -1.12937,-1.12937 -0.97039,-2.03437 -2.56636,-2.56636 -3.27224,-1.09075 -8.4882,0 -11.97634,0 -0.5703,0 -1.39456,-0.47452 -1.71091,0 -1.67166,2.50749 -0.94946,24.52611 -0.85545,24.80813 0.53522,1.60564 2.07415,2.67855 3.01474,4.08561 z"
     id="path1678" />
  <path
     style="fill:#000000;stroke:#000000;stroke-width:1px;stroke-linecap:butt;stroke-linejoin:miter;stroke-opacity:1;fill-opacity:1"
     d="m 286.55838,257.22563 c 1.50424,-0.37606 3.18315,-0.33044 4.51273,-1.12818 1.99706,-1.19824 1.38078,-3.51085 3.38455,-4.51273 1.43218,-0.7161 4.33649,-0.95195 5.64091,-2.25637 2.33425,-2.33425 -3.56704,0.0913 1.12818,-2.25636 0.67272,-0.33636 1.58365,0.33636 2.25637,0 2.1851,-1.09255 3.2553,-1.46116 5.64091,-2.25637 1.00908,-0.33636 1.305,-1.78068 2.25637,-2.25636 1.78585,-0.89293 5.06899,-0.27813 6.76909,-1.12819 1.21276,-0.60638 2.17179,-1.64998 3.38455,-2.25636 0.90254,-0.45127 2.482,0.45127 3.38455,0 3.62911,-1.81456 8.47107,-1.89325 11.28182,-5.64091 2.14939,-2.86586 3.68171,-6.08665 5.64092,-9.02546 0.5982,-0.89732 0.53458,-10.47996 0,-11.28183 -1.19266,-1.78898 -5.62416,-2.23961 -6.7691,-3.38455 -0.95877,-0.95877 -1.04361,-2.77817 -2.25637,-3.38455 -1.12599,-0.56299 -26.9337,-0.42362 -28.20456,0 -1.00908,0.33636 -1.33285,1.72865 -2.25637,2.25637 -8.94635,5.1122 -15.02575,4.9919 -21.43546,13.53819 -0.99512,1.32682 -3.71863,2.92453 -4.51273,4.51273 -3.22352,6.44704 -4.65212,26.2778 4.51273,29.33275 1.81914,0.60638 3.7606,0.75212 5.64091,1.12818 z"
     id="path1713" />
</svg>
