<?xml version="1.0" encoding="UTF-8" standalone="no"?>
<!-- Uploaded to SVGRepo https://www.svgrepo.com -->

<svg
   version="1.2"
   id="Layer_1"
   x="0px"
   y="0px"
   viewBox="0 0 256 256"
   xml:space="preserve"
   sodipodi:docname="sport_kayaking.svg"
   inkscape:version="1.1 (c68e22c387, 2021-05-23)"
   xmlns:inkscape="http://www.inkscape.org/namespaces/inkscape"
   xmlns:sodipodi="http://sodipodi.sourceforge.net/DTD/sodipodi-0.dtd"
   xmlns="http://www.w3.org/2000/svg"
   xmlns:svg="http://www.w3.org/2000/svg"><defs
   id="defs6" /><sodipodi:namedview
   id="namedview4"
   pagecolor="#ffffff"
   bordercolor="#666666"
   borderopacity="1.0"
   inkscape:pageshadow="2"
   inkscape:pageopacity="0.0"
   inkscape:pagecheckerboard="0"
   showgrid="false"
   inkscape:zoom="2.6484375"
   inkscape:cx="128.18879"
   inkscape:cy="128.18879"
   inkscape:window-width="1600"
   inkscape:window-height="837"
   inkscape:window-x="-8"
   inkscape:window-y="-8"
   inkscape:window-maximized="1"
   inkscape:current-layer="Layer_1" />
<path
   id="XMLID_9_"
   d="m 233.8,162.7 c 4.5,2 9.6,3.2 14.9,3.2 v 22.3 c -5.3,0 -10.4,-1.2 -14.9,-3.2 -4.7,-2.2 -9.9,-3.4 -15.3,-3.4 -5.5,0 -10.7,1.3 -15.3,3.4 -4.6,2 -9.6,3.2 -14.9,3.2 -5.3,0 -10.3,-1.2 -14.9,-3.2 -4.6,-2.2 -9.9,-3.4 -15.3,-3.4 -5.4,0 -10.6,1.3 -15.3,3.4 -4.5,2 -9.6,3.2 -14.8,3.2 -5.3,0 -10.4,-1.2 -14.9,-3.2 -4.6,-2.2 -9.9,-3.4 -15.3,-3.4 -5.5,0 -10.7,1.3 -15.3,3.4 -1.6,0.7 -3.3,1.1 -5,1.7 L 52,212.2 c 3,5.7 -0.06549,10.25693 -4.865487,15.05693 l -20.444837,20.44484 c -5.900003,5.9 -8.981121,4.01209 -14.981121,-1.88791 C 5.8085546,239.91386 4.0145257,235.30195 10.19823,229.7 L 30.265487,211.52065 C 35.610725,206.67829 40.9,202.7 46.8,206.4 L 65.3,188 c -4.4,-0.3 -8.7,-1.3 -12.5,-2.9 -4.6,-2.2 -9.8,-3.4 -15.3,-3.4 -5.5,0 -10.7,1.3 -15.3,3.4 -4.6,2 -9.6,3.2 -14.9,3.2 V 166 c 5.3,0 10.3,-1.2 14.9,-3.2 4.6,-2.2 9.9,-3.4 15.3,-3.4 5.5,0 10.6,1.3 15.3,3.4 4.6,2 9.6,3.2 14.9,3.2 5.3,0 10.3,-1.2 14.9,-3.2 4.6,-2.2 9.9,-3.4 15.3,-3.4 5.5,0 10.7,1.3 15.3,3.4 4.5,2 9.6,3.2 14.9,3.2 5.3,0 10.3,-1.2 14.8,-3.2 4.7,-2.2 9.9,-3.4 15.3,-3.4 5.5,0 10.7,1.3 15.3,3.4 4.6,2 9.6,3.2 14.9,3.2 5.3,0 10.3,-1.2 14.9,-3.2 4.6,-2.2 9.9,-3.4 15.3,-3.4 5.3,-0.1 10.5,1.1 15.2,3.3 z M 211,52.9 l -24.9,25 c 2.5,2.6 3.5,6.6 2.2,10.3 -1.9,5.2 -7.7,7.8 -12.9,5.9 l -4.1,-1.6 -30.4,30.4 c 0,0 99.2,0.1 102.6,0 12,-0.4 7.4,7 1.9,10.4 -6.7,4.1 -9.6,6 -17.3,9.4 -4.3,2.9 -8.7,2.6 -9.8,2.6 -6.4,0 -12.9,1.4 -18.7,4.1 -3.6,1.6 -7.6,2.5 -11.5,2.5 -3.9,0 -7.9,-0.8 -11.7,-2.5 -5.8,-2.7 -12.1,-4.1 -18.6,-4.1 -6.3,0 -12.8,1.4 -18.6,4.1 -3.7,1.6 -7.6,2.5 -11.5,2.5 -4,0 -8,-0.8 -11.7,-2.5 -5.8,-2.7 -12.1,-4.1 -18.6,-4.1 -6.4,0 -12.8,1.4 -18.7,4.1 -3.6,1.6 -7.5,2.5 -11.5,2.5 -4,0 -7.9,-0.8 -11.7,-2.5 -5.7,-2.6 -12.1,-4.1 -18.5,-4.1 -6.4,0 -12.9,1.4 -18.7,4.1 -3.5,1.6 -7.6,2.5 -11.5,2.5 v -29 h 71.6 c 0.1,-0.5 0.1,-1.1 0.3,-1.7 L 94.8,67.3 C 98.2,55.9 104.2587,43.358702 115.6587,46.758702 117.72429,46.637915 129.70283,47.362897 126.1,54.7 L 178.9,74 205.3,47.6 c -3.7,-5.8 2.95295,-14.719768 6.15339,-18.7 L 228.5,7.7 c 5.22855,-6.5024817 10.96903,-2.879351 16.86903,3.020649 C 251.26903,16.620649 255.8,23.1 249.9,29.1 L 227.56726,45.769027 C 222.86726,50.569027 216.8,55.9 211,52.9 Z m -47.6,36.6 -26.8,-9.9 -13,43.2 h 6.5 z M 139.33953,16.482891 130.9,20.4 c -1.8,3.7 -11.03509,2.967387 -14.73274,5.162242 L 103.3,33.2 c 1.69936,2.434222 5.13059,9.340372 9.42119,12.013906 C 117.77246,48.361425 123.86908,47.1 127.6,47.1 c 11.3,0 20.5,-9.1 20.5,-20.4 v -1.1 l 3.9,-5.2 c 0,0 -11.66047,-9.817109 -12.66047,-3.917109 z M 117.4,33.2 c 2.2,0 4.2,-1.3 5.1,-3.2 l 8.4,-9.6 c 1,-2.2 -2.49419,-0.170287 0,0 l 33.1826,2.265487 C 163.42061,20.088486 151.11414,18.679695 148.6971,16.3009 140.89073,8.6180483 136.53386,1.5 127.6,1.5 c -13.9,0 -25.1,11.2 -25.1,25.2 0,2.2 0.2,4.4 0.8,6.5 z"
   sodipodi:nodetypes="ccccscscscscscccsscsscccsccccscscscscscsccccccccccccscscscscscscsccccccccccsssccccccccccscssscccsccscssscs"
   inkscape:transform-center-x="16.99115"
   inkscape:transform-center-y="13.59292" />
</svg>
